<svg xmlns="http://www.w3.org/2000/svg" viewBox="0 0 47.775 23.643">
  <path id="mark" d="M24237.463,13274.04a6.6,6.6,0,0,1,6.6-6.594,6.678,6.678,0,0,1,1.918.286,8.162,8.162,0,0,1,6.23-3.62,8.938,8.938,0,0,1,15.613-2.56,8.536,8.536,0,0,1,1.055-.079,7.74,7.74,0,0,1,7.7,7.009,6.024,6.024,0,0,1,1.529-.2,6.128,6.128,0,0,1,.385,12.244,9.218,9.218,0,0,0-2.078-3.475,10.838,10.838,0,0,0-2.914-2.127,7.2,7.2,0,0,0-4.113-11.481,7.808,7.808,0,0,0-1.543-.159,7.2,7.2,0,0,0-5.654,11.647,10.707,10.707,0,0,0-2.73,1.938,8.969,8.969,0,0,0-1.213-.786,6.4,6.4,0,0,0-3.871-9.946,6.49,6.49,0,0,0-1.365-.146,6.4,6.4,0,0,0-5.234,10.093,8.544,8.544,0,0,0-4.059,4.541A6.593,6.593,0,0,1,24237.463,13274.04Zm34.4,6.485h-12.646a.413.413,0,0,1-.383-.579,7.074,7.074,0,0,1,.736-1.219,7.608,7.608,0,0,1,.762-.884,9.858,9.858,0,0,1,3.693-2.273.309.309,0,0,0,.115-.524,5.84,5.84,0,0,1-2.187-4.564c0-.22.02-.433.037-.646.006-.066.023-.134.031-.2.023-.14.041-.28.072-.42.018-.079.043-.152.061-.231.031-.122.066-.244.109-.366.025-.079.055-.158.086-.237a3.273,3.273,0,0,1,.141-.335c.037-.08.066-.152.109-.226.055-.11.115-.22.176-.323.043-.067.08-.141.123-.207l.219-.312c.049-.061.092-.121.135-.183.092-.109.189-.213.285-.316.037-.043.074-.092.117-.135.141-.14.293-.28.445-.408a.529.529,0,0,0,.049-.036c.145-.11.291-.22.438-.317.055-.036.115-.073.172-.109.115-.067.23-.141.354-.2.066-.036.139-.067.213-.1.109-.049.225-.1.342-.146.078-.036.158-.061.236-.092l.354-.109c.08-.024.164-.043.25-.061.123-.03.244-.055.365-.073.086-.013.166-.03.256-.043.129-.012.264-.019.4-.03.08,0,.164-.006.244-.013.146,0,.293.013.439.019.072.006.146.006.225.013a5.542,5.542,0,0,1,3.59,1.761,5.618,5.618,0,0,1,1.555,2.8,5.866,5.866,0,0,1-2.029,5.839.317.317,0,0,0,.115.542,9.775,9.775,0,0,1,3.8,2.39,7.5,7.5,0,0,1,1.348,1.943.422.422,0,0,1-.373.616Zm-22.439,0h-3.547a.427.427,0,0,1-.354-.652,7.893,7.893,0,0,1,4.01-3.151.3.3,0,0,0,.109-.506,5.094,5.094,0,1,1,6.814-.091.384.384,0,0,0,.115.64,8.229,8.229,0,0,1,2,1.109,7.448,7.448,0,0,0-1.268,2.347.439.439,0,0,1-.4.3Z" transform="translate(-24236.963 -13257.5)" fill="#f1f3f4" stroke="rgba(0,0,0,0)" stroke-width="1"/>
</svg>
