<svg id="JumpCloud" xmlns="http://www.w3.org/2000/svg" viewBox="0 0 50 50"><defs><style>.cls-1{fill:#231f20;fill-rule:evenodd;}</style></defs><title>users1</title><g id="nav-icons"><g id="Users"><path class="cls-1" d="M9.57,39.8c.67-5.5,1.45-7.2,4.32-9.61,1.33-1.12,3.92-2.42,7.79-3.87.12-.05.21-.08.19-.23a2.11,2.11,0,0,1,.22-1.38c-.08-.29-.19-.73-.28-1.05a3.1,3.1,0,0,1-1.65-2.43c0-.15-.13-.56-.22-.85a19.27,19.27,0,0,1-.56-2.55A2.6,2.6,0,0,1,20,15.62l0,0c0-.15,0-.3-.05-.46,0-.38,0-1.12,0-1.86s0-1.28,0-1.6c0-.65.13-1.68,1.76-3.33a4.15,4.15,0,0,0-.58.1,1.65,1.65,0,0,0-1.6-.93c-1.31-.06-3.65-.25-5.36,1.2s-3.09,3.78-3.9,7.61S7.27,24,7.49,26.15c0,0,1.36-4.71,2.38-5.54,0,0-2,4.59-1.56,5.66A4.65,4.65,0,0,1,9,24.6s-.49,1.61,0,2a3.8,3.8,0,0,0,2.06.75c.47-.06,2.16-.09,2.16.43,0,1.25-1.41,3-4.19,3.53-3.25.64-6.43,2.52-6.43,7.27.19,1.12,2.82,1.77,7,1.85Z"/><path class="cls-1" d="M38,28.19a2.42,2.42,0,0,1-1.74-1c-1-1-1.12-2-1.62-2,0,0,.58-2,.58-2.25s.62.47,1.54-1.51,1.41-3.86.54-3.66-1,0-.83-.31a13.6,13.6,0,0,0,.45-3.55,26.2,26.2,0,0,0-.58-2.68c-.08-.27-.16-.59.21-.59S36,10,35.71,10s0-.47.33-.47-.12-.46-.54-.46-.08-.74-.08-.74l-.7.31s-.54-1.09-.38-1.25-.58.39-.87.35-.54-1-1.29-1.13-.66-.86-.62-1-.45.9-.83.9a7.5,7.5,0,0,0-1.7,0s-.08-.71.06-.88-.72.8-1.18.92-.79.5-1.08.54-.87.59-1.2.63.49-1.06.49-1.06a9.74,9.74,0,0,1-1.45,1.52A10.76,10.76,0,0,0,23.3,9.43c-.29.27-1.53,1.48-1.49,2.18s0,2.76,0,3.46.54,1.68.46,1.87-1.25-.62-1.08.74.78,3,.78,3.54,1,1.21,1.29.9c0,0,.42,1.59.67,2.41s-.09.74-.3,1.09.35,1.65-1,2.16a28.43,28.43,0,0,0-7,3.47c-2.51,2.15-3.37,3.89-4,9.17,1.46,4,10.12,4,17.72,4,6.89,0,16-.14,18.17-3.94a13.48,13.48,0,0,0-2.84-8.8C43,29.47,38.2,28.25,38,28.19Z"/></g></g></svg>